<?xml version="1.0" standalone="no"?>
<!DOCTYPE svg PUBLIC "-//W3C//DTD SVG 20010904//EN"
 "http://www.w3.org/TR/2001/REC-SVG-20010904/DTD/svg10.dtd">
<svg version="1.0" xmlns="http://www.w3.org/2000/svg"
 width="655.000000pt" height="716.000000pt" viewBox="0 0 655.000000 716.000000"
 preserveAspectRatio="xMidYMid meet">

<g transform="translate(0.000000,716.000000) scale(0.100000,-0.100000)"
fill="#000000" stroke="none">
<path d="M3084 6609 c-70 -12 -196 -66 -274 -119 -83 -55 -220 -192 -298 -299
-133 -179 -267 -472 -336 -734 -43 -166 -74 -317 -86 -422 -5 -44 -15 -116
-21 -160 -18 -117 -18 -663 0 -786 14 -95 14 -97 -7 -124 -31 -39 -45 -96 -32
-132 6 -15 32 -49 57 -75 31 -31 48 -59 53 -85 54 -274 191 -607 350 -848 279
-422 672 -570 1034 -389 152 76 332 256 468 464 35 54 78 134 78 145 0 12
-171 65 -210 65 -12 0 -64 -45 -132 -113 -103 -103 -123 -119 -218 -166 -89
-44 -120 -54 -201 -65 -109 -15 -222 -3 -321 34 -283 106 -537 441 -677 897
l-22 72 20 40 c34 66 28 105 -23 158 -38 38 -47 56 -60 114 -9 37 -16 94 -16
127 0 32 -5 108 -11 168 -12 119 0 350 26 499 8 44 17 98 20 120 16 119 28
167 79 321 115 343 229 530 439 721 85 77 148 114 251 147 68 22 96 26 205 26
139 -1 193 -13 300 -70 78 -42 198 -142 261 -217 59 -72 67 -74 175 -43 38 11
80 20 93 20 29 0 38 24 21 58 -184 356 -439 593 -696 647 -74 16 -208 18 -289
4z"/>
<path d="M1603 5873 c-85 -14 -174 -43 -244 -79 -56 -28 -108 -64 -93 -64 5 0
-2 -6 -16 -13 -29 -15 -71 -84 -62 -105 3 -9 1 -13 -5 -9 -26 16 -33 -218 -8
-266 9 -18 10 -25 2 -20 -9 5 -9 3 -1 -8 6 -8 14 -26 18 -41 12 -50 51 -128
64 -128 9 0 11 -7 7 -20 -4 -11 -2 -20 4 -20 6 0 11 -6 11 -13 0 -7 30 -58 66
-112 86 -129 100 -146 109 -137 5 4 5 2 2 -5 -11 -19 118 -167 136 -156 6 3 7
1 3 -5 -8 -13 47 -72 67 -72 16 0 87 58 87 71 0 6 -5 7 -12 3 -7 -4 -8 -3 -4
4 11 18 -4 37 -16 21 -7 -10 -8 -9 -4 5 7 22 -31 69 -47 59 -6 -3 -7 -1 -3 6
9 14 -32 74 -45 66 -5 -4 -7 0 -4 7 3 7 -11 38 -31 68 -20 30 -51 83 -69 117
-18 35 -35 60 -39 56 -3 -3 -6 8 -6 26 0 18 -4 30 -9 27 -4 -3 -6 7 -4 22 3
17 1 23 -4 15 -11 -15 -15 22 -16 145 0 103 5 142 17 134 5 -3 6 2 3 12 -4 10
-3 15 3 11 6 -3 10 -3 10 2 0 17 90 127 106 129 9 2 21 9 25 16 5 7 9 9 9 4 0
-5 6 -4 13 1 12 11 118 46 172 58 17 4 98 7 180 8 l150 2 23 45 c27 53 28 87
5 94 -108 33 -445 57 -550 39z m487 -163 c0 -5 -10 -10 -22 -9 -22 0 -22 1 -3
9 11 5 21 9 23 9 1 1 2 -3 2 -9z m30 0 c0 -5 -5 -10 -11 -10 -5 0 -7 5 -4 10
3 6 8 10 11 10 2 0 4 -4 4 -10z m-930 -224 c0 -3 -4 -8 -10 -11 -5 -3 -10 -1
-10 4 0 6 5 11 10 11 6 0 10 -2 10 -4z m40 -256 c0 -5 -2 -10 -4 -10 -3 0 -8
5 -11 10 -3 6 -1 10 4 10 6 0 11 -4 11 -10z m227 -202 c-3 -8 -6 -5 -6 6 -1
11 2 17 5 13 3 -3 4 -12 1 -19z m-99 -53 c-3 -3 -9 2 -12 12 -6 14 -5 15 5 6
7 -7 10 -15 7 -18z m174 -47 c-8 -8 -9 -4 -5 13 4 13 8 18 11 10 2 -7 -1 -18
-6 -23z"/>
<path d="M4520 5879 c-113 -13 -282 -46 -400 -78 -262 -72 -311 -86 -404 -118
-95 -33 -300 -114 -335 -133 -9 -5 -38 -19 -66 -31 -151 -66 -561 -280 -580
-304 -5 -6 -14 -13 -20 -14 -5 -1 -47 -24 -92 -52 -57 -35 -80 -54 -76 -64 3
-8 0 -15 -7 -15 -6 0 -8 5 -5 10 10 16 -12 12 -29 -5 -8 -8 -17 -15 -20 -15
-10 0 -110 -72 -123 -89 -12 -14 -19 -121 -8 -121 2 0 78 49 167 109 164 110
364 229 513 305 110 57 339 166 348 166 3 0 30 11 59 24 29 13 77 31 106 41
28 9 50 21 47 26 -4 5 0 6 8 3 8 -3 68 13 133 35 66 22 148 46 182 54 l64 15
19 -32 c10 -17 19 -35 19 -39 0 -4 8 -27 19 -50 16 -38 29 -71 85 -229 17 -47
17 -47 -10 -94 l-27 -46 16 -52 c11 -33 30 -64 50 -83 41 -37 51 -74 69 -253
24 -248 13 -532 -31 -790 -30 -175 -121 -435 -221 -628 -27 -53 -46 -100 -41
-105 12 -12 150 -47 186 -47 31 0 31 1 72 128 63 192 90 290 132 487 18 84 47
321 51 411 0 7 63 67 141 134 192 167 382 358 375 376 -3 8 -2 13 3 10 5 -3
30 20 58 52 154 180 248 338 309 517 21 64 26 98 26 170 0 93 -20 182 -40 178
-6 -2 -9 3 -7 10 8 19 -49 81 -114 125 -52 35 -201 91 -241 90 -8 0 -39 5 -69
11 -61 13 -181 12 -291 0z m343 -46 c-7 -2 -19 -2 -25 0 -7 3 -2 5 12 5 14 0
19 -2 13 -5z m-488 -18 c-64 -18 -76 -18 -45 -1 14 8 41 14 60 14 32 1 31 0
-15 -13z m636 -3 c-7 -2 -18 1 -23 6 -8 8 -4 9 13 5 13 -4 18 -8 10 -11z
m-941 -87 c-13 -25 -30 -33 -30 -15 0 12 33 48 39 43 2 -2 -2 -14 -9 -28z
m-103 9 c-3 -3 -12 -4 -19 -1 -8 3 -5 6 6 6 11 1 17 -2 13 -5z m53 -28 c0 -3
-4 -8 -10 -11 -5 -3 -10 -1 -10 4 0 6 5 11 10 11 6 0 10 -2 10 -4z m727 -2
c-3 -3 -12 -4 -19 -1 -8 3 -5 6 6 6 11 1 17 -2 13 -5z m-480 -10 c-3 -3 -12
-4 -19 -1 -8 3 -5 6 6 6 11 1 17 -2 13 -5z m-457 -8 c0 -3 -4 -8 -10 -11 -5
-3 -10 -1 -10 4 0 6 5 11 10 11 6 0 10 -2 10 -4z m890 -22 c82 -24 128 -51
188 -108 85 -80 97 -110 97 -241 0 -169 -42 -266 -240 -553 -22 -32 -85 -102
-190 -211 -60 -62 -116 -120 -123 -127 -33 -34 -38 -17 -51 179 -7 105 -17
239 -21 297 -6 92 -5 109 12 136 33 57 18 155 -31 201 -39 37 -151 404 -130
429 23 28 396 27 489 -2z m20 16 c0 -5 -5 -10 -11 -10 -5 0 -7 5 -4 10 3 6 8
10 11 10 2 0 4 -4 4 -10z m497 -92 c-3 -7 -5 -2 -5 12 0 14 2 19 5 13 2 -7 2
-19 0 -25z m-1682 -28 c3 -5 1 -10 -4 -10 -6 0 -11 5 -11 10 0 6 2 10 4 10 3
0 8 -4 11 -10z m65 -5 c0 -10 -9 -15 -27 -14 -24 2 -25 2 -5 6 12 2 20 9 17
14 -4 5 -1 9 4 9 6 0 11 -7 11 -15z m-213 -41 c-3 -3 -12 -4 -19 -1 -8 3 -5 6
6 6 11 1 17 -2 13 -5z m-67 -54 c-27 -21 -40 -25 -40 -12 0 5 12 13 28 19 39
16 40 15 12 -7z m1710 -2 c0 -16 -3 -19 -11 -11 -6 6 -8 16 -5 22 11 17 16 13
16 -11z m-1675 -18 c-3 -5 -14 -10 -23 -10 -15 0 -15 2 -2 10 20 13 33 13 25
0z m-185 -30 c8 -5 11 -12 8 -16 -4 -3 -14 1 -23 10 -18 17 -9 21 15 6z m60 6
c0 -3 -4 -8 -10 -11 -5 -3 -10 -1 -10 4 0 6 5 11 10 11 6 0 10 -2 10 -4z
m1807 -28 c-3 -7 -5 -2 -5 12 0 14 2 19 5 13 2 -7 2 -19 0 -25z m-30 0 c-3 -8
-6 -5 -6 6 -1 11 2 17 5 13 3 -3 4 -12 1 -19z m-1867 -2 c0 -3 -4 -8 -10 -11
-5 -3 -10 -1 -10 4 0 6 5 11 10 11 6 0 10 -2 10 -4z m49 -20 c-15 -13 -49 -25
-49 -17 0 5 8 12 18 14 24 6 36 8 31 3z m-149 -26 c0 -5 -9 -6 -20 -3 -11 3
-17 9 -15 14 7 10 35 1 35 -11z m1967 -42 c-3 -8 -6 -5 -6 6 -1 11 2 17 5 13
3 -3 4 -12 1 -19z m-2137 -33 c-7 -8 -20 -15 -29 -16 -9 -1 -5 -4 9 -9 22 -7
22 -8 4 -9 -32 -2 -37 11 -12 31 28 22 45 23 28 3z m50 -40 c0 -2 -10 -10 -22
-16 -21 -11 -22 -11 -9 4 13 16 31 23 31 12z m-90 -15 c0 -5 -5 -10 -11 -10
-5 0 -7 5 -4 10 3 6 8 10 11 10 2 0 4 -4 4 -10z m40 -4 c0 -3 -4 -8 -10 -11
-5 -3 -10 -1 -10 4 0 6 5 11 10 11 6 0 10 -2 10 -4z m-60 -26 c0 -5 -7 -7 -15
-4 -8 4 -12 10 -9 15 6 11 24 2 24 -11z m2207 -12 c-3 -8 -6 -5 -6 6 -1 11 2
17 5 13 3 -3 4 -12 1 -19z m-2260 6 c-3 -3 -12 -4 -19 -1 -8 3 -5 6 6 6 11 1
17 -2 13 -5z m2391 -40 c-7 -15 -14 -21 -16 -15 -5 16 5 41 17 41 7 0 6 -10
-1 -26z m-2398 -8 c0 -2 -7 -6 -15 -10 -8 -3 -15 -1 -15 4 0 6 7 10 15 10 8 0
15 -2 15 -4z m-113 -33 c-4 -3 -1 -13 6 -21 10 -13 9 -14 -11 -3 -22 12 -22
31 0 31 6 0 8 -3 5 -7z m-38 -16 c-2 -1 -12 -9 -22 -16 -15 -12 -17 -12 -11 3
3 9 13 16 22 16 8 0 13 -1 11 -3z m2534 -17 c-3 -12 -8 -19 -11 -16 -5 6 5 36
12 36 2 0 2 -9 -1 -20z m-176 -22 c-3 -8 -6 -5 -6 6 -1 11 2 17 5 13 3 -3 4
-12 1 -19z m-2412 -38 c8 -13 -5 -13 -25 0 -13 8 -13 10 2 10 9 0 20 -4 23
-10z m-38 -17 c2 -6 -2 -13 -9 -16 -9 -3 -14 3 -14 14 0 20 17 21 23 2z m2583
13 c0 -3 -4 -8 -10 -11 -5 -3 -10 -1 -10 4 0 6 5 11 10 11 6 0 10 -2 10 -4z
m-2690 -30 c0 -2 -7 -9 -15 -16 -13 -11 -14 -10 -9 4 5 14 24 23 24 12z m30
-51 c0 -11 -29 -11 -33 -1 -4 10 1 12 14 9 10 -3 19 -7 19 -8z m2430 -40 c-7
-9 -15 -13 -19 -10 -3 3 1 10 9 15 21 14 24 12 10 -5z m38 -48 c8 -9 12 -20 7
-25 -4 -4 -10 -1 -12 6 -3 7 -10 18 -17 25 -7 7 -10 19 -8 27 5 13 6 13 10 0
3 -8 11 -23 20 -33z m-98 -37 c0 -5 -5 -10 -11 -10 -5 0 -7 5 -4 10 3 6 8 10
11 10 2 0 4 -4 4 -10z m100 -16 c0 -8 -5 -12 -10 -9 -6 4 -8 11 -5 16 9 14 15
11 15 -7z m-116 -10 c9 -3 13 -10 10 -15 -8 -14 -21 -11 -28 6 -6 17 -4 18 18
9z m-144 -206 c0 -4 -9 -8 -20 -8 -11 0 -20 4 -20 8 0 4 9 8 20 8 11 0 20 -4
20 -8z m-100 -82 c0 -3 -4 -8 -10 -11 -5 -3 -10 -1 -10 4 0 6 5 11 10 11 6 0
10 -2 10 -4z m-60 -76 c-8 -5 -19 -10 -25 -10 -5 0 -3 5 5 10 8 5 20 10 25 10
6 0 3 -5 -5 -10z m50 -4 c0 -3 -4 -8 -10 -11 -5 -3 -10 -1 -10 4 0 6 5 11 10
11 6 0 10 -2 10 -4z m-32 -35 c11 -7 10 -9 -3 -14 -10 -4 -14 -3 -9 4 4 8 -1
9 -17 4 -19 -5 -21 -4 -9 4 18 13 21 13 38 2z"/>
<path d="M3184 5072 c-6 -4 -21 -28 -32 -55 -15 -33 -29 -50 -49 -57 -15 -6
-53 -24 -84 -40 -68 -36 -100 -37 -139 -8 l-30 22 -26 -25 c-44 -41 -47 -55
-23 -99 21 -37 22 -44 10 -78 -31 -85 -71 -163 -88 -168 -54 -17 -76 -50 -62
-96 11 -38 11 -39 51 -47 28 -6 35 -14 55 -66 13 -33 33 -79 45 -102 24 -45
26 -34 -27 -110 -8 -11 -2 -22 24 -45 28 -25 39 -29 65 -23 89 18 94 18 128
-8 18 -14 56 -34 83 -45 39 -15 54 -27 70 -58 24 -47 32 -54 67 -54 23 0 31 8
47 44 19 40 29 48 122 94 100 50 103 51 137 36 19 -7 45 -14 58 -14 32 0 58
41 49 78 -20 81 -17 106 29 214 17 40 26 48 71 63 24 8 31 17 36 50 9 53 3 64
-45 85 -38 16 -44 24 -73 96 -44 111 -44 108 -22 148 24 46 24 48 -8 86 -28
33 -38 34 -100 9 -30 -12 -37 -11 -95 18 -35 17 -76 35 -93 39 -18 6 -35 21
-44 39 -29 63 -77 98 -107 77z m140 -312 c53 -22 128 -96 156 -155 29 -59 28
-173 -2 -234 -33 -68 -125 -154 -186 -174 -64 -21 -69 -21 -149 4 -53 17 -76
32 -115 73 -27 28 -60 75 -75 104 -22 46 -25 62 -21 125 4 55 12 86 33 125 34
62 55 83 125 121 69 38 162 42 234 11z"/>
<path d="M3175 4586 c-17 -7 -39 -29 -50 -49 -36 -68 3 -138 86 -152 31 -6 42
-2 70 23 30 27 34 36 32 76 -2 53 -26 91 -67 106 -35 12 -34 12 -71 -4z"/>
<path d="M1879 4607 c-100 -89 -129 -119 -124 -127 3 -6 0 -7 -8 -4 -17 6
-160 -143 -150 -159 3 -5 2 -7 -4 -4 -6 4 -29 -16 -53 -44 -37 -43 -40 -52
-28 -67 11 -15 11 -16 -3 -5 -16 13 -19 11 -74 -56 -13 -16 -15 -22 -5 -17 8
5 3 -2 -11 -15 -35 -31 -148 -206 -188 -292 -18 -37 -44 -107 -58 -155 -31
-107 -29 -228 5 -302 68 -149 170 -211 397 -245 126 -19 196 -19 375 1 227 26
241 35 197 124 l-22 45 -80 -3 c-44 -2 -125 3 -180 11 -61 9 -102 11 -106 5
-3 -5 -12 -2 -19 7 -7 8 -18 15 -24 15 -31 0 -137 64 -183 111 -76 75 -96 134
-91 266 2 55 6 99 11 96 4 -2 7 3 7 12 0 24 43 120 96 215 26 47 47 90 47 97
0 7 3 11 6 9 11 -7 112 135 105 146 -4 6 -3 8 4 4 11 -7 79 70 75 85 -2 5 2 8
7 6 6 -1 35 23 65 53 l55 55 0 82 c0 46 -1 83 -2 83 -2 0 -19 -15 -39 -33z m7
-43 c-4 -9 -9 -15 -11 -12 -3 3 -3 13 1 22 4 9 9 15 11 12 3 -3 3 -13 -1 -22z
m-46 -18 c0 -2 -8 -10 -17 -17 -16 -13 -17 -12 -4 4 13 16 21 21 21 13z m32
-48 c-7 -7 -12 -8 -12 -2 0 14 12 26 19 19 2 -3 -1 -11 -7 -17z m-50 -90 c-8
-8 -9 -4 -5 13 4 13 8 18 11 10 2 -7 -1 -18 -6 -23z m-252 -153 c0 -8 -4 -15
-10 -15 -5 0 -7 7 -4 15 4 8 8 15 10 15 2 0 4 -7 4 -15z m1 -162 c-8 -15 -10
-15 -11 -2 0 17 10 32 18 25 2 -3 -1 -13 -7 -23z m-211 -154 c0 -5 -4 -9 -10
-9 -5 0 -10 7 -10 16 0 8 5 12 10 9 6 -3 10 -10 10 -16z m130 -19 c-6 -11 -12
-20 -14 -20 -2 0 -2 9 1 20 3 11 9 20 15 20 5 0 4 -9 -2 -20z m-290 -320 c0
-5 -4 -10 -10 -10 -5 0 -10 5 -10 10 0 6 5 10 10 10 6 0 10 -4 10 -10z m260
-140 c0 -5 -5 -10 -11 -10 -5 0 -7 5 -4 10 3 6 8 10 11 10 2 0 4 -4 4 -10z
m35 -20 c3 -5 1 -10 -4 -10 -6 0 -11 5 -11 10 0 6 2 10 4 10 3 0 8 -4 11 -10z
m-296 -70 c1 -13 0 -13 -9 0 -5 8 -9 26 -9 40 l1 25 8 -25 c4 -14 8 -32 9 -40z
m254 45 c-3 -9 -8 -14 -10 -11 -3 3 -2 9 2 15 9 16 15 13 8 -4z m80 -22 c-3
-7 -6 -13 -8 -13 -2 0 -5 6 -8 13 -3 8 1 14 8 14 7 0 11 -6 8 -14z m37 -34 c0
-5 -4 -9 -10 -9 -5 0 -10 7 -10 16 0 8 5 12 10 9 6 -3 10 -10 10 -16z m-20
-31 c0 -6 -6 -5 -15 2 -8 7 -15 14 -15 16 0 2 7 1 15 -2 8 -4 15 -11 15 -16z
m-273 -50 c-3 -8 -6 -5 -6 6 -1 11 2 17 5 13 3 -3 4 -12 1 -19z m843 -8 c0 -5
-4 -10 -10 -10 -5 0 -10 5 -10 10 0 6 5 10 10 10 6 0 10 -4 10 -10z m-92 -17
c-16 -2 -40 -2 -55 0 -16 2 -3 4 27 4 30 0 43 -2 28 -4z m-383 -103 c3 -5 48
-11 98 -12 l92 -2 -87 -3 c-64 -3 -95 0 -115 11 -19 10 -23 15 -11 16 9 0 20
-4 23 -10z m222 -6 c-3 -3 -12 -4 -19 -1 -8 3 -5 6 6 6 11 1 17 -2 13 -5z
m-246 -22 c-7 -2 -18 1 -23 6 -8 8 -4 9 13 5 13 -4 18 -8 10 -11z m172 -9 c-7
-2 -21 -2 -30 0 -10 3 -4 5 12 5 17 0 24 -2 18 -5z"/>
<path d="M4715 4340 c-35 -36 -37 -41 -23 -57 8 -10 26 -31 39 -47 13 -16 29
-34 34 -40 6 -6 21 -28 35 -48 13 -20 27 -35 31 -32 4 2 6 -4 5 -14 0 -9 4
-16 11 -15 7 2 10 -3 7 -11 -3 -8 0 -17 7 -22 8 -4 10 -3 5 4 -4 7 -2 12 4 12
7 0 9 -7 6 -16 -3 -9 4 -33 16 -53 38 -60 77 -149 93 -209 18 -69 13 -214 -10
-268 -21 -50 -69 -109 -111 -135 -27 -16 -32 -24 -22 -30 9 -6 5 -9 -14 -9
-35 0 -59 -10 -52 -21 3 -5 -1 -6 -8 -4 -8 3 -33 -1 -57 -10 -24 -8 -56 -15
-71 -15 -16 0 -31 -6 -34 -12 -5 -10 -7 -10 -12 -1 -4 9 -11 10 -22 4 -16 -8
-203 -8 -245 0 -15 3 -24 -10 -43 -60 -13 -35 -22 -67 -19 -71 8 -12 93 -33
111 -26 9 3 22 2 28 -2 6 -5 45 -12 86 -15 44 -3 67 -2 55 3 -18 8 -18 9 -2 9
12 1 16 6 11 14 -4 7 -3 9 2 4 5 -5 9 -14 9 -20 0 -15 215 -13 300 3 156 30
236 63 304 128 86 82 124 190 109 306 -10 76 -57 226 -71 226 -6 0 -8 3 -4 6
7 7 -46 117 -73 151 -10 12 -20 19 -24 15 -4 -3 -4 1 -1 9 3 9 -1 22 -10 29
-13 11 -15 10 -9 -6 4 -15 4 -16 -4 -5 -6 8 -8 20 -5 28 3 7 0 13 -6 13 -6 0
-10 4 -9 8 4 13 -134 192 -144 186 -5 -3 -7 0 -6 8 2 7 -3 12 -10 10 -8 -1
-11 2 -8 7 9 14 -98 126 -122 128 -11 1 -36 -16 -57 -37z m115 -20 c0 -5 -2
-10 -4 -10 -3 0 -8 5 -11 10 -3 6 -1 10 4 10 6 0 11 -4 11 -10z m124 -365 c-7
-16 -24 -21 -24 -6 0 8 7 13 27 20 1 1 0 -6 -3 -14z m203 -87 c-3 -8 -6 -5 -6
6 -1 11 2 17 5 13 3 -3 4 -12 1 -19z m-130 -205 c-2 -16 -4 -5 -4 22 0 28 2
40 4 28 2 -13 2 -35 0 -50z m-157 -333 c-8 -5 -19 -10 -25 -10 -5 0 -3 5 5 10
8 5 20 10 25 10 6 0 3 -5 -5 -10z m274 -25 c-4 -8 -8 -15 -10 -15 -2 0 -4 7
-4 15 0 8 4 15 10 15 5 0 7 -7 4 -15z m36 -19 c0 -3 -4 -8 -10 -11 -5 -3 -10
-1 -10 4 0 6 5 11 10 11 6 0 10 -2 10 -4z m-547 -153 c-7 -2 -19 -2 -25 0 -7
3 -2 5 12 5 14 0 19 -2 13 -5z"/>
<path d="M1127 1963 c-79 -76 -243 -232 -365 -347 -122 -116 -221 -215 -219
-220 4 -13 23 -22 172 -89 173 -77 255 -108 264 -102 9 5 128 151 373 456 64
81 124 149 132 152 17 7 243 -72 282 -98 67 -43 82 -99 42 -150 -48 -62 -143
-79 -264 -49 -36 9 -67 14 -70 12 -17 -18 -53 -473 -38 -488 12 -10 500 -133
513 -128 6 1 -16 60 -48 129 -65 136 -102 242 -105 292 l-1 32 121 6 c102 5
131 11 180 33 98 45 144 101 144 176 0 49 -11 73 -54 118 -51 55 -137 95 -396
187 -135 48 -305 116 -379 151 -73 35 -135 64 -137 64 -3 0 -69 -62 -147 -137z"/>
<path d="M5022 1949 c-82 -12 -236 -53 -457 -122 -194 -61 -333 -96 -487 -122
-72 -13 -98 -21 -98 -32 0 -8 22 -83 49 -166 51 -157 119 -376 166 -530 15
-52 32 -90 42 -94 20 -8 97 7 363 67 657 150 985 308 1085 522 35 75 34 165
-1 236 -52 104 -215 217 -348 241 -70 13 -224 12 -314 0z m93 -225 c97 -36
175 -146 175 -243 -1 -109 -103 -204 -300 -278 -60 -23 -295 -93 -311 -93 -7
0 -188 333 -245 452 -15 32 -25 60 -21 64 7 8 288 89 377 109 88 20 258 14
325 -11z"/>
<path d="M2596 1628 c-130 -453 -207 -726 -212 -753 -8 -42 -18 -39 226 -62
324 -30 1090 -22 1273 13 28 6 28 7 25 72 l-3 67 -34 -2 c-19 -1 -93 -6 -165
-12 -188 -15 -617 -25 -709 -17 l-78 8 7 106 c3 59 10 113 14 121 6 12 65 15
336 17 181 2 345 7 364 11 l35 9 0 64 0 65 -35 -2 c-142 -9 -621 -14 -650 -6
l-35 10 4 69 c1 38 7 76 11 84 7 12 65 15 367 17 197 2 374 7 393 11 l35 8 -2
63 c-1 35 -4 65 -6 68 -3 2 -79 -1 -168 -8 -203 -15 -675 -6 -839 16 -63 8
-120 15 -127 15 -7 0 -19 -24 -27 -52z"/>
</g>
Path>
</defs>
Path>
</defs>
Path>
</defs>
</svg>
